<svg xmlns="http://www.w3.org/2000/svg" viewBox="0 0 171.14 176.26"><defs><style>.cls-1{fill:#fff;}</style></defs><g id="Layer_2" data-name="Layer 2"><g id="Layer_1-2" data-name="Layer 1"><path d="M55.71,120.61c.38-.76.8-1.49,1.12-2.27C60.57,109.18,64.26,100,68,90.86c4.56-11.08,9-22.19,13.8-33.16C84.61,51.32,88,45.18,91.08,39c1.82-3.63,3.62-7.26,5.55-10.83A7,7,0,0,1,99,25.34c2.17-1.26,4.38-.12,5.32,2.29.89,2.23.7,4.55.76,6.84q.29,9.83.48,19.64c.21,9.76.44,19.52.6,29.28.16,9.5.25,19,.36,28.49.12,10.56.33,21.12.3,31.67,0,9-.3,17.94-.51,26.91a5.59,5.59,0,0,1-6.14,5.79c-2.94-.15-5.2-2.76-5.16-6.13.12-10.59.2-21.19.48-31.78.34-13.2.86-26.41,1.3-39.61.32-9.5.71-19,.94-28.49.21-8.47.24-16.95.34-25.42a1.59,1.59,0,0,0-.35-1c-.44.9-.91,1.79-1.32,2.7q-7.27,16-14.55,32.09-7.53,16.62-15.11,33.21c-2.87,6.27-5.89,12.47-8.84,18.7A7.51,7.51,0,0,1,53,134.9a3.16,3.16,0,0,1-3.87-2.12,33.13,33.13,0,0,1-1-10c.05-4.77.13-9.54.49-14.29.41-5.39,1.07-10.77,1.76-16.13.85-6.64,1.76-13.28,2.8-19.9.91-5.76,2-11.49,3.07-17.24,2-11.12,3.9-18.24,5.86-29.36a32.23,32.23,0,0,1,.78-3.19A1.77,1.77,0,0,1,65,21.28a1.87,1.87,0,0,1,1.37,2.25c-1,6.78-1.92,12.56-2.83,19.34-1,7.2-2,11.4-2.8,18.62-1.21,10.64-2.37,21.28-3.36,31.94-.8,8.63-1.33,17.28-2,25.92a11.81,11.81,0,0,0,0,1.19Z"/><path d="M1.43,79.51A197.62,197.62,0,0,1,55.65,76c14.76,1.09,29.49,2.62,43.86,6.25,11.82,3,23.57,6.36,35.13,10.23,11.22,3.76,22.16,8.35,33.22,12.59a4.51,4.51,0,0,1,3.26,3.9c.15,1.83-.54,3.66-2.34,4.21a7.77,7.77,0,0,1-4.7-.1c-11.49-4.34-22.9-8.85-34.35-13.3-13.87-5.39-27.92-10.28-42.49-13.35-20.6-4.34-41.34-8-62.54-6.58-7.22.47-14.4,1.49-21.6,2.26-.36,0-.75.23-1.05.13a19.68,19.68,0,0,1-2-.91Z"/><path d="M65.63,17.86c-.18-.62-.35-1.19-.51-1.76-.44-1.5-.87-3-1.32-4.5a.73.73,0,0,0-.3-.41L58.42,7.67l-.27-.19.49-.15,5.77-1.69a.76.76,0,0,0,.41-.29Q66.59,2.82,68.34.26c0-.08.11-.15.19-.26l.1.28c.57,2,1.15,4,1.72,5.94a.81.81,0,0,0,.33.46l5.07,3.5.27.19a1.75,1.75,0,0,1-.3.1c-2,.58-4,1.15-5.94,1.74a.79.79,0,0,0-.43.31c-1.18,1.68-2.34,3.37-3.51,5.06C65.79,17.66,65.72,17.74,65.63,17.86Zm.4-2.44c.09-.13.15-.2.2-.28l2.48-3.57a.72.72,0,0,1,.37-.27c1.33-.4,2.67-.78,4-1.17l.48-.15-.27-.2C72.11,9,70.92,8.14,69.73,7.3a.75.75,0,0,1-.27-.36c-.4-1.34-.78-2.68-1.17-4,0-.15-.09-.3-.15-.48l-.2.26C67.12,3.9,66.3,5.1,65.47,6.28a.76.76,0,0,1-.37.27l-4,1.17-.48.15.26.2,2.67,1.85a4.1,4.1,0,0,1,1.07.78A4.22,4.22,0,0,1,65,12C65.36,13.1,65.68,14.23,66,15.42Z"/><path d="M67.38,7a1.91,1.91,0,1,1-.6,3.77A1.91,1.91,0,0,1,67.38,7ZM67,9.76a.86.86,0,0,0,1-.69.84.84,0,0,0-.69-1A.84.84,0,1,0,67,9.76Z"/><path class="cls-1" d="M67,9.76a.84.84,0,1,1,.26-1.66.84.84,0,0,1,.69,1A.86.86,0,0,1,67,9.76Z"/></g></g></svg>