<svg width="26" height="24" viewBox="0 0 26 24" fill="none" xmlns="http://www.w3.org/2000/svg">
<g clip-path="url(#clip0_129_112)">
<path d="M19.4999 0H8.66659C7.61384 0.00127838 6.58431 0.285705 5.7039 0.818499C4.82349 1.35129 4.13035 2.10936 3.70925 3H2.16659C1.87927 3 1.60372 3.10536 1.40055 3.29289C1.19739 3.48043 1.08325 3.73478 1.08325 4C1.08325 4.26522 1.19739 4.51957 1.40055 4.70711C1.60372 4.89464 1.87927 5 2.16659 5H3.24992V7H2.16659C1.87927 7 1.60372 7.10536 1.40055 7.29289C1.19739 7.48043 1.08325 7.73478 1.08325 8C1.08325 8.26522 1.19739 8.51957 1.40055 8.70711C1.60372 8.89464 1.87927 9 2.16659 9H3.24992V11H2.16659C1.87927 11 1.60372 11.1054 1.40055 11.2929C1.19739 11.4804 1.08325 11.7348 1.08325 12C1.08325 12.2652 1.19739 12.5196 1.40055 12.7071C1.60372 12.8946 1.87927 13 2.16659 13H3.24992V15H2.16659C1.87927 15 1.60372 15.1054 1.40055 15.2929C1.19739 15.4804 1.08325 15.7348 1.08325 16C1.08325 16.2652 1.19739 16.5196 1.40055 16.7071C1.60372 16.8946 1.87927 17 2.16659 17H3.24992V19H2.16659C1.87927 19 1.60372 19.1054 1.40055 19.2929C1.19739 19.4804 1.08325 19.7348 1.08325 20C1.08325 20.2652 1.19739 20.5196 1.40055 20.7071C1.60372 20.8946 1.87927 21 2.16659 21H3.70925C4.13035 21.8906 4.82349 22.6487 5.7039 23.1815C6.58431 23.7143 7.61384 23.9987 8.66659 24H19.4999C20.936 23.9984 22.3127 23.4711 23.3282 22.5338C24.3436 21.5964 24.9149 20.3256 24.9166 19V5C24.9149 3.6744 24.3436 2.40356 23.3282 1.46622C22.3127 0.528882 20.936 0.00158786 19.4999 0ZM22.7499 19C22.7499 19.7956 22.4075 20.5587 21.798 21.1213C21.1885 21.6839 20.3619 22 19.4999 22H8.66659C7.80463 22 6.97798 21.6839 6.36849 21.1213C5.759 20.5587 5.41659 19.7956 5.41659 19V5C5.41659 4.20435 5.759 3.44129 6.36849 2.87868C6.97798 2.31607 7.80463 2 8.66659 2H19.4999C20.3619 2 21.1885 2.31607 21.798 2.87868C22.4075 3.44129 22.7499 4.20435 22.7499 5V19ZM14.0833 12C14.9452 12 15.7719 11.6839 16.3813 11.1213C16.9908 10.5587 17.3333 9.79565 17.3333 9C17.3333 8.20435 16.9908 7.44129 16.3813 6.87868C15.7719 6.31607 14.9452 6 14.0833 6C13.2213 6 12.3946 6.31607 11.7852 6.87868C11.1757 7.44129 10.8333 8.20435 10.8333 9C10.8333 9.79565 11.1757 10.5587 11.7852 11.1213C12.3946 11.6839 13.2213 12 14.0833 12ZM19.4999 18C19.4999 18.2652 19.3858 18.5196 19.1826 18.7071C18.9795 18.8946 18.7039 19 18.4166 19C18.1293 19 17.8537 18.8946 17.6506 18.7071C17.4474 18.5196 17.3333 18.2652 17.3333 18C17.3333 17.2044 16.9908 16.4413 16.3813 15.8787C15.7719 15.3161 14.9452 15 14.0833 15C13.2213 15 12.3946 15.3161 11.7852 15.8787C11.1757 16.4413 10.8333 17.2044 10.8333 18C10.8333 18.2652 10.7191 18.5196 10.516 18.7071C10.3128 18.8946 10.0372 19 9.74992 19C9.4626 19 9.18705 18.8946 8.98389 18.7071C8.78072 18.5196 8.66659 18.2652 8.66659 18C8.89517 11.392 19.2735 11.394 19.4999 18Z" fill="black"/>
</g>
<defs>
<clipPath id="clip0_129_112">
<rect width="26" height="24" fill="white"/>
</clipPath>
</defs>
</svg>
