<svg width="24" height="24" viewBox="0 0 24 24" fill="none" xmlns="http://www.w3.org/2000/svg">
<path d="M11.424 0.69433C11.7804 0.494926 12.2195 0.494926 12.576 0.69433L21.8164 5.86381C22.1727 6.0632 22.3924 6.43171 22.3924 6.83053V17.1695C22.3924 17.5683 22.1727 17.9368 21.8164 18.1362L12.576 23.3056C12.2195 23.5051 11.7804 23.5051 11.424 23.3056L2.18366 18.1362C1.82724 17.9368 1.60767 17.5683 1.60767 17.1695V6.83053C1.60767 6.43171 1.82724 6.0632 2.18366 5.86379L11.424 0.69433Z" fill="black" stroke="black" stroke-linejoin="bevel"/>
<path d="M5.2025 15.0698L4.85327 14.915L5.2025 15.4419V15.0698ZM8.15162 8.81861V8.44652L7.80239 8.66392L8.15162 8.81861ZM8.82439 8.81861L9.17362 8.66392L8.82439 8.44652V8.81861ZM11.7735 15.0698V15.4419L12.1228 14.915L11.7735 15.0698ZM11.0547 15.0698L10.7041 15.2218L11.0547 15.4419V15.0698ZM8.34516 9.20261V8.83052L7.99464 9.35459L8.34516 9.20261ZM8.62164 9.20261L8.97215 9.35459L8.62164 8.83052V9.20261ZM5.91213 15.0698V15.4419L6.26265 15.2218L5.91213 15.0698ZM6.36372 13.3999L6.00318 13.2717L6.36372 13.7719V13.3999ZM6.56647 12.864V12.4919L6.20593 12.7359L6.56647 12.864ZM10.3174 12.864L10.6779 12.7359L10.3174 12.4919V12.864ZM10.5201 13.3999V13.7719L10.8807 13.2717L10.5201 13.3999ZM5.55173 15.2244L8.50087 8.97331L7.80239 8.66392L4.85327 14.915L5.55173 15.2244ZM8.15162 9.19071H8.82439V8.44652H8.15162V9.19071ZM8.47516 8.97331L11.4243 15.2244L12.1228 14.915L9.17362 8.66392L8.47516 8.97331ZM11.7735 14.6977H11.0547V15.4419H11.7735V14.6977ZM11.4052 14.9178L8.69567 9.05063L7.99464 9.35459L10.7041 15.2218L11.4052 14.9178ZM8.34516 9.57471H8.62164V8.83052H8.34516V9.57471ZM8.27112 9.05063L5.56162 14.9178L6.26265 15.2218L8.97215 9.35459L8.27112 9.05063ZM5.91213 14.6977H5.2025V15.4419H5.91213V14.6977ZM6.72425 13.5279L6.92701 12.9921L6.20593 12.7359L6.00318 13.2717L6.72425 13.5279ZM6.56647 13.2361H10.3174V12.4919H6.56647V13.2361ZM9.95684 12.9921L10.1596 13.5279L10.8807 13.2717L10.6779 12.7359L9.95684 12.9921ZM10.5201 13.0278H6.36372V13.7719H10.5201V13.0278ZM13.5227 13.5159L13.1389 13.5283L13.7959 13.7773L13.5227 13.5159ZM13.495 12.7122L13.2197 12.4528L13.1112 12.7246L13.495 12.7122ZM17.4026 8.81861V8.44652L17.1273 8.55921L17.4026 8.81861ZM18.186 8.81861L18.4639 9.07541L18.186 8.44652V8.81861ZM15.3382 11.712L15.0603 11.4552L15.0575 11.4582L15.3382 11.712ZM14.9511 12.1139L15.2244 12.3753L15.2319 12.3678L14.9511 12.1139ZM12.9328 15.0698H12.5488L12.9328 15.4419V15.0698ZM12.9328 8.81861V8.44652L12.5488 8.81861H12.9328ZM13.6148 8.81861H13.9988L13.6148 8.44652V8.81861ZM13.6148 15.0698V15.4419L13.9988 15.0698H13.6148ZM17.5685 15.0698L17.2785 15.3136L17.5685 15.4419V15.0698ZM14.7853 11.9621L14.5035 11.7092L14.4952 12.2059L14.7853 11.9621ZM15.2461 11.4799L15.5393 11.2396L14.9643 11.227L15.2461 11.4799ZM18.3795 15.0698V15.4419L18.6727 14.8295L18.3795 15.0698ZM13.9065 13.5035L13.8788 12.6998L13.1112 12.7246L13.1389 13.5283L13.9065 13.5035ZM13.7703 12.9716L17.6779 9.07802L17.1273 8.55921L13.2197 12.4528L13.7703 12.9716ZM17.4026 9.19071H18.186V8.44652H17.4026V9.19071ZM17.9081 8.56181L15.0603 11.4552L15.6161 11.9688L18.4639 9.07541L17.9081 8.56181ZM15.0575 11.4582L14.6704 11.86L15.2319 12.3678L15.619 11.9659L15.0575 11.4582ZM14.6779 11.8524L13.2494 13.2545L13.7959 13.7773L15.2244 12.3753L14.6779 11.8524ZM13.3168 15.0698V8.81861H12.5488V15.0698H13.3168ZM12.9328 9.19071H13.6148V8.44652H12.9328V9.19071ZM13.2308 8.81861V15.0698H13.9988V8.81861H13.2308ZM13.6148 14.6977H12.9328V15.4419H13.6148V14.6977ZM17.8585 14.8259L15.0753 11.7181L14.4952 12.2059L17.2785 15.3136L17.8585 14.8259ZM15.067 12.2148L15.5278 11.7326L14.9643 11.227L14.5035 11.7092L15.067 12.2148ZM14.9529 11.7201L18.0863 15.3101L18.6727 14.8295L15.5393 11.2396L14.9529 11.7201ZM18.3795 14.6977H17.5685V15.4419H18.3795V14.6977Z" fill="white"/>
</svg>
