<svg width="24" height="24" viewBox="0 0 24 24" fill="none" xmlns="http://www.w3.org/2000/svg">
<g clip-path="url(#clip0_129_121)">
<path d="M17 0H7C4.243 0 2 2.243 2 5V19C2 21.757 4.243 24 7 24H17C19.757 24 22 21.757 22 19V5C22 2.243 19.757 0 17 0ZM7.5 4.5C8.328 4.5 9 5.172 9 6C9 6.828 8.328 7.5 7.5 7.5C6.672 7.5 6 6.828 6 6C6 5.172 6.672 4.5 7.5 4.5ZM7.5 19.5C6.672 19.5 6 18.828 6 18C6 17.172 6.672 16.5 7.5 16.5C8.328 16.5 9 17.172 9 18C9 18.828 8.328 19.5 7.5 19.5ZM8.865 13.521C8.546 13.84 8.124 14 7.7 14C7.273 14 6.845 13.838 6.518 13.513L5.837 12.858C5.439 12.476 5.426 11.842 5.809 11.444C6.192 11.045 6.826 11.034 7.223 11.416L7.695 11.87L9.561 10.055C9.957 9.67 10.59 9.678 10.975 10.075C11.36 10.471 11.351 11.104 10.955 11.489L8.864 13.523L8.865 13.521ZM17 19H12C11.448 19 11 18.552 11 18C11 17.448 11.448 17 12 17H17C17.552 17 18 17.448 18 18C18 18.552 17.552 19 17 19ZM17 13H14C13.448 13 13 12.552 13 12C13 11.448 13.448 11 14 11H17C17.552 11 18 11.448 18 12C18 12.552 17.552 13 17 13ZM17 7H12C11.448 7 11 6.552 11 6C11 5.448 11.448 5 12 5H17C17.552 5 18 5.448 18 6C18 6.552 17.552 7 17 7Z" fill="black"/>
</g>
<defs>
<clipPath id="clip0_129_121">
<rect width="24" height="24" fill="white"/>
</clipPath>
</defs>
</svg>
