<svg width="24" height="24" viewBox="0 0 24 24" fill="none" xmlns="http://www.w3.org/2000/svg">
<g clip-path="url(#clip0_129_119)">
<path d="M11.696 11.718L9.834 13.523C9.516 13.841 9.094 14.001 8.671 14.001C8.244 14.001 7.815 13.838 7.488 13.512L6.807 12.858C6.409 12.475 6.396 11.842 6.779 11.444C7.162 11.046 7.796 11.034 8.193 11.416L8.666 11.871L10.304 10.283C10.7 9.9 11.333 9.908 11.718 10.305C12.102 10.701 12.093 11.333 11.696 11.718ZM16 17H13C12.448 17 12 17.448 12 18C12 18.552 12.448 19 13 19H16C16.552 19 17 18.552 17 18C17 17.448 16.552 17 16 17ZM16 5H13C12.448 5 12 5.448 12 6C12 6.552 12.448 7 13 7H16C16.552 7 17 6.552 17 6C17 5.448 16.552 5 16 5ZM16 11H14C13.448 11 13 11.448 13 12C13 12.552 13.448 13 14 13H16C16.552 13 17 12.552 17 12C17 11.448 16.552 11 16 11ZM8.5 16.5C7.672 16.5 7 17.172 7 18C7 18.828 7.672 19.5 8.5 19.5C9.328 19.5 10 18.828 10 18C10 17.172 9.328 16.5 8.5 16.5ZM8.5 7.5C9.328 7.5 10 6.828 10 6C10 5.172 9.328 4.5 8.5 4.5C7.672 4.5 7 5.172 7 6C7 6.828 7.672 7.5 8.5 7.5ZM22 5V19C22 21.757 19.757 24 17 24H7C4.243 24 2 21.757 2 19V5C2 2.243 4.243 0 7 0H17C19.757 0 22 2.243 22 5ZM20 5C20 3.346 18.654 2 17 2H7C5.346 2 4 3.346 4 5V19C4 20.654 5.346 22 7 22H17C18.654 22 20 20.654 20 19V5Z" fill="black"/>
</g>
<defs>
<clipPath id="clip0_129_119">
<rect width="24" height="24" fill="white"/>
</clipPath>
</defs>
</svg>
