<svg width="24" height="24" viewBox="0 0 24 24" fill="none" xmlns="http://www.w3.org/2000/svg">
<g clip-path="url(#clip0_129_94)">
<path d="M13 20C12.45 20 12 19.55 12 19V13C12 12.45 11.55 12 11 12C10.45 12 10 11.55 10 11C10 10.45 10.45 10 11 10C12.65 10 14 11.35 14 13V19C14 19.55 13.55 20 13 20ZM12 5C11.17 5 10.5 5.67 10.5 6.5C10.5 7.33 11.17 8 12 8C12.83 8 13.5 7.33 13.5 6.5C13.5 5.67 12.83 5 12 5ZM24 19V5C24 2.24 21.76 0 19 0H5C2.24 0 0 2.24 0 5V19C0 21.76 2.24 24 5 24H19C21.76 24 24 21.76 24 19ZM19 2C20.65 2 22 3.35 22 5V19C22 20.65 20.65 22 19 22H5C3.35 22 2 20.65 2 19V5C2 3.35 3.35 2 5 2H19Z" fill="black"/>
</g>
<defs>
<clipPath id="clip0_129_94">
<rect width="24" height="24" fill="white"/>
</clipPath>
</defs>
</svg>
